<svg width="345" height="121" viewBox="0 0 345 121" fill="none" xmlns="http://www.w3.org/2000/svg">
<g clip-path="url(#clip0_1_9)">
<g filter="url(#filter0_f_1_9)">
<path fill-rule="evenodd" clip-rule="evenodd" d="M39.1489 3.87036L273.227 82.6833L140.209 102.056L39.1489 3.87036Z" fill="url(#paint0_linear_1_9)"/>
</g>
<g filter="url(#filter1_f_1_9)">
<path fill-rule="evenodd" clip-rule="evenodd" d="M71.773 -8.55554L305.851 70.2574L172.833 89.6296L71.773 -8.55554Z" fill="url(#paint1_linear_1_9)"/>
</g>
<mask id="mask0_1_9" style="mask-type:luminance" maskUnits="userSpaceOnUse" x="39" y="-9" width="267" height="112">
<path fill-rule="evenodd" clip-rule="evenodd" d="M305.851 70.2574L71.7731 -8.55554L108.648 27.2702L39.1489 3.87039L140.209 102.056L273.227 82.6834L257.315 77.326L305.851 70.2574Z" fill="white"/>
</mask>
<g mask="url(#mask0_1_9)">
<path fill-rule="evenodd" clip-rule="evenodd" d="M234.752 26.8787C182.673 48.774 112.852 60.8092 37.99 60.8092C37.4835 60.8092 36.9758 60.8086 36.4681 60.8074C3.66288 60.7359 -28.1513 58.3574 -57.9078 53.8639V55.1173C-28.1269 59.5742 3.67267 61.9398 36.4575 62.0107L36.8979 62.0113L37.0398 62.0115L37.2804 62.0117L37.99 62.0119C113.46 62.0119 183.884 49.8691 236.42 27.7813C294.946 3.17534 326.624 -31.899 328.37 -73.7407H325.845C324.103 -32.2546 292.719 2.50679 234.752 26.8787ZM37.9202 -7.3981C37.4431 -7.3981 36.955 -7.39932 36.4766 -7.40116C0.828251 -7.55393 -32.4418 -13.1155 -57.9078 -23.1083V-21.5653C-32.2106 -11.7865 0.966501 -6.34943 36.4546 -6.19727C36.966 -6.19482 37.4774 -6.1936 37.9888 -6.1936C76.0533 -6.1936 111.593 -12.2941 138.206 -23.4139C167.438 -35.6274 183.643 -52.9919 185.344 -73.7401H182.81C179.071 -28.1017 106.026 -7.3981 37.9202 -7.3981ZM37.9215 -3.38554C37.4431 -3.38554 36.9599 -3.38677 36.4803 -3.3886C1.27643 -3.5316 -31.742 -8.66004 -57.9078 -17.9341V-16.4466C-31.5573 -7.35227 1.38735 -2.3271 36.4607 -2.18532C36.9709 -2.18288 37.4786 -2.18227 37.9888 -2.18227C78.2555 -2.18227 115.849 -8.63927 143.986 -20.4042C174.94 -33.3455 192.054 -51.7525 193.759 -73.7401H191.226C187.474 -25.3468 110.073 -3.38554 37.9215 -3.38554ZM36.4852 0.623345C36.9611 0.625178 37.4456 0.626403 37.9215 0.626403C114.124 0.626403 195.88 -22.5907 199.639 -73.7401H202.173C200.463 -50.512 182.441 -31.0642 149.768 -17.3938C120.104 -4.98299 80.4564 1.83029 37.9892 1.83029C37.4798 1.83029 36.9758 1.82968 36.4668 1.82723C1.73602 1.69401 -31.0312 -2.97365 -57.9078 -11.4807V-12.948C-31.1764 -4.28204 1.6357 0.490122 36.4852 0.623345ZM37.9215 4.63834C37.4456 4.63834 36.9648 4.63712 36.4889 4.63529C1.93299 4.51001 -30.7127 0.0421803 -57.9078 -8.09782V-6.67516C-30.5892 1.32918 2.01128 5.7139 36.4697 5.83918C36.9782 5.84101 37.481 5.84223 37.9888 5.84223C82.6597 5.84223 124.359 -1.32671 155.548 -14.3841C189.943 -28.7831 208.872 -49.272 210.587 -73.7401H208.054C204.287 -19.8346 118.172 4.63834 37.9215 4.63834ZM36.4925 8.64764C36.9648 8.64968 37.4517 8.65008 37.9239 8.65008C122.222 8.65008 212.694 -17.0779 216.467 -73.7401H219C217.281 -48.0321 197.443 -26.5018 161.329 -11.3732C128.614 2.32957 84.8619 9.85397 37.9892 9.85397C37.4823 9.85397 36.9819 9.85336 36.4742 9.85153C2.25149 9.73297 -30.2213 5.60309 -57.9078 -1.95676V-3.3391C-30.3278 4.33829 2.19112 8.5297 36.4925 8.64764ZM165.441 -9.26688C131.315 5.03434 85.465 12.8028 36.4925 12.6602C2.40767 12.5478 -29.9995 8.59325 -57.9078 1.3249V2.70784C-29.9143 9.86925 2.46639 13.7516 36.4754 13.8641C36.9819 13.8661 37.4827 13.8665 37.9888 13.8665C87.0628 13.8665 132.868 5.98646 167.107 -8.36243C204.946 -24.2199 225.694 -46.7917 227.415 -73.7401H224.89C223.175 -47.1499 202.722 -24.8909 165.441 -9.26688H165.441ZM36.495 16.6721C87.6659 16.8133 135.569 8.69103 171.22 -6.25593C210.223 -22.6084 231.583 -45.9093 233.302 -73.7401H235.827C234.103 -45.5518 212.447 -21.9381 172.885 -5.3521C137.122 9.64253 89.2612 17.8783 37.9875 17.8783C37.4823 17.8783 36.9856 17.8779 36.4778 17.876C2.63645 17.7697 -29.6414 14.0688 -57.9078 7.25553V5.90742C-29.7185 12.8136 2.59118 16.5658 36.495 16.6723V16.6721ZM176.996 -3.24438C139.823 12.3479 89.8962 20.846 36.495 20.6847C2.75675 20.5826 -29.4775 17.0266 -57.9078 10.4492V11.7979C-29.4147 18.2897 2.80038 21.7871 36.4778 21.8892H36.5064C37.0035 21.8904 37.4933 21.8916 37.9875 21.8916C91.4646 21.8916 141.373 13.3 178.663 -2.33932C219.946 -19.6556 242.514 -44.3106 244.242 -73.7401H241.717C239.995 -44.6687 217.723 -20.326 176.996 -3.24438ZM37.9875 24.6997C93.055 24.6997 144.419 15.86 182.773 -0.232823C225.224 -18.0435 248.406 -43.4276 250.13 -73.7401H252.655C250.925 -43.0701 227.448 -17.3737 184.441 0.671622C145.628 16.9569 93.6667 25.9034 37.9888 25.9034C37.4978 25.9034 37.01 25.9022 36.5186 25.9009H36.4803C2.92884 25.8038 -29.2043 22.4471 -57.9078 16.2401V14.9213C-29.2646 21.2041 2.8958 24.5999 36.4942 24.6973C36.9892 24.6989 37.4921 24.6997 37.9875 24.6997ZM188.551 2.77873C148.328 19.6617 94.2882 28.8734 36.495 28.709C3.0206 28.6161 -29.0775 25.3711 -57.9078 19.3574V20.6761C-29.0285 26.6196 3.05362 29.82 36.4803 29.9135C36.9868 29.9147 37.4835 29.9153 37.9892 29.9153C95.8652 29.9153 149.881 20.6126 190.219 3.68236C234.947 -15.0904 259.336 -41.8293 261.068 -73.7399H258.543C256.815 -42.1862 232.725 -15.7601 188.551 2.77894V2.77873ZM37.9888 32.7234C97.4544 32.7234 152.925 23.1731 194.328 5.7909C240.224 -13.4778 265.228 -40.9452 266.956 -73.7401H269.481C267.748 -40.5884 242.449 -12.8083 195.995 6.69392C154.131 24.2695 98.0636 33.9273 37.9879 33.9273C37.4904 33.9273 37.0011 33.926 36.5019 33.9248H36.4778C3.16129 33.8356 -28.8695 30.7715 -57.9078 25.068V23.7751C-28.9172 29.5407 3.13926 32.6317 36.4942 32.7215C36.9917 32.7228 37.492 32.7234 37.9888 32.7234ZM200.105 8.80246C157.175 26.8302 99.6577 36.7351 37.99 36.7351C37.4925 36.7351 36.9909 36.7345 36.4938 36.7333C3.23224 36.6473 -28.7643 33.6627 -57.9078 28.1199V29.4136C-28.7239 34.8977 3.25426 37.8512 36.4778 37.9374H36.5207C37.0137 37.9386 37.4978 37.9398 37.9875 37.9398C100.266 37.9398 158.384 27.9268 201.772 9.70609C249.948 -10.5249 276.156 -39.3472 277.892 -73.7401H275.367C273.637 -39.7047 247.725 -11.1949 200.105 8.80225V8.80246ZM37.9888 40.7477C101.855 40.7477 161.425 30.4871 205.88 11.8148C255.223 -8.91182 282.049 -38.4629 283.783 -73.7401H286.308C284.571 -38.106 257.448 -8.24266 207.549 12.7183C162.635 31.583 102.464 41.9518 37.9888 41.9518C37.481 41.9518 36.9843 41.9512 36.4758 41.9499C3.34439 41.8668 -28.6007 39.038 -57.9078 33.7586V32.4649C-28.6346 37.7987 3.32155 40.6623 36.4889 40.746C36.9892 40.7473 37.4908 40.7479 37.9888 40.7479V40.7477ZM211.655 14.8272C165.677 34.1442 104.055 44.7602 37.99 44.7602C37.4896 44.7602 36.9868 44.7596 36.4876 44.7584C3.41086 44.6777 -28.5216 41.9414 -57.9078 36.8025V38.0743C-28.4878 43.1646 3.42555 45.8816 36.4742 45.9623C36.9831 45.9635 37.4814 45.9641 37.99 45.9641C104.665 45.9641 166.887 35.2405 213.324 15.731C264.947 -5.95893 292.979 -36.8649 294.72 -73.7401H292.195C290.459 -37.2217 262.723 -6.6279 211.655 14.8272ZM36.4815 48.771C105.287 48.9335 169.577 37.949 217.43 17.84C270.221 -4.34438 298.87 -35.9802 300.608 -73.7401H303.133C301.391 -35.6237 272.447 -3.67582 219.098 18.7432C171.136 38.898 106.866 49.9761 37.9888 49.9761C37.481 49.9761 36.9782 49.9755 36.4693 49.9742C3.48916 49.896 -28.3789 47.2585 -57.9078 42.3415V41.0699C-28.4095 46.0326 3.47407 48.6927 36.4815 48.771ZM223.205 20.8527C174.177 41.4592 108.455 52.7841 37.99 52.7841L37.1984 52.7837L36.8261 52.7833L36.5068 52.7829H36.4803C3.53972 52.7071 -28.3104 50.1337 -57.9078 45.3365V46.6082C-28.2847 51.3621 3.554 53.911 36.4668 53.9862C36.9782 53.9874 37.4786 53.988 37.99 53.988C109.063 53.988 175.386 42.5549 224.872 21.756C279.946 -1.3921 309.802 -34.3819 311.545 -73.7401H309.02C307.282 -34.7388 277.721 -2.06127 223.205 20.8527ZM36.4717 56.7948C109.67 56.9403 178.072 45.2638 228.977 23.8655C285.22 0.223065 315.693 -33.497 317.433 -73.7401H319.959C318.214 -33.1407 287.446 0.891621 230.646 24.7681C179.635 46.2116 111.26 57.9999 37.9888 57.9999C37.4749 57.9999 36.9758 58 36.4607 57.9987C3.61639 57.9254 -28.2039 55.4748 -57.9078 50.875V49.6027C-28.226 54.2435 3.60171 56.7215 36.4717 56.7948ZM37.99 64.821C115.053 64.821 186.921 52.4321 240.525 29.8921C300.219 4.79112 332.515 -31.0135 334.259 -73.7401H336.784C335.037 -30.6566 302.444 5.46029 242.194 30.7947C188.132 53.5272 115.661 66.0249 37.99 66.0249C37.4749 66.0249 36.9664 66.0243 36.4497 66.023C3.71426 65.954 -28.051 63.6427 -57.9078 59.3187V58.0647C-28.0718 62.4242 3.70571 64.7501 36.4619 64.8197C36.9697 64.8204 37.4835 64.821 37.99 64.821ZM246.297 32.9055C191.17 56.089 117.246 68.8329 37.99 68.8329C37.4802 68.8329 36.9664 68.8323 36.4546 68.8317C3.74771 68.7639 -28.0021 66.4973 -57.9078 62.2653V63.5193C-27.9833 67.7183 3.75586 69.9678 36.4436 70.0356C36.9599 70.0368 37.4753 70.0374 37.99 70.0374C117.862 70.0374 192.377 57.1866 247.966 33.8087C309.943 7.74441 343.448 -29.415 345.196 -73.7401H342.671C340.926 -29.7713 307.716 7.07525 246.297 32.9055ZM37.99 72.8455C119.45 72.8455 195.415 59.7477 252.069 35.9195C315.215 9.3602 349.337 -28.5289 351.084 -73.7401H353.609C351.86 -28.1726 317.442 10.029 253.737 36.8227C196.625 60.8434 120.058 74.0494 37.99 74.0494C37.4712 74.0494 36.9562 74.0487 36.4362 74.0475C3.79664 73.9809 -27.925 71.7993 -57.9078 67.7195V66.4655C-27.9409 70.5764 3.78767 72.7776 36.4473 72.8442C36.9574 72.8449 37.4798 72.8455 37.99 72.8455ZM257.841 38.9335C199.662 63.405 121.646 76.8574 37.99 76.8574C37.4761 76.8574 36.9525 76.8568 36.4387 76.8562C3.82804 76.7914 -27.8871 74.6623 -57.9078 70.6662V71.9202C-27.8724 75.887 3.83783 77.9951 36.4289 78.0599C36.9513 78.0613 37.4676 78.0613 37.99 78.0613C122.255 78.0613 200.874 64.5008 259.509 39.8361C324.94 12.3137 360.271 -26.9302 362.022 -73.7401H359.497C357.75 -27.2865 322.713 11.6451 257.841 38.9335ZM37.9912 80.8692C123.844 80.8692 203.909 67.0631 263.613 41.9475C330.212 13.9301 366.161 -26.0435 367.909 -73.7401H370.434C368.683 -25.6885 332.438 14.5986 265.28 42.8499C205.12 68.1582 124.452 82.073 37.9912 82.073C37.4639 82.073 36.9464 82.073 36.4191 82.0718C3.87698 82.0083 -27.8271 79.9781 -57.9078 76.1198V74.8658C-27.8394 78.7529 3.86842 80.8044 36.4301 80.8679C36.948 80.8685 37.4749 80.8692 37.9912 80.8692Z" fill="url(#paint2_linear_1_9)" fill-opacity="0.64"/>
</g>
</g>
<defs>
<filter id="filter0_f_1_9" x="-53.2731" y="-88.5516" width="418.922" height="283.029" filterUnits="userSpaceOnUse" color-interpolation-filters="sRGB">
<feFlood flood-opacity="0" result="BackgroundImageFix"/>
<feBlend mode="normal" in="SourceGraphic" in2="BackgroundImageFix" result="shape"/>
<feGaussianBlur stdDeviation="46.211" result="effect1_foregroundBlur_1_9"/>
</filter>
<filter id="filter1_f_1_9" x="-20.6489" y="-100.978" width="418.922" height="283.029" filterUnits="userSpaceOnUse" color-interpolation-filters="sRGB">
<feFlood flood-opacity="0" result="BackgroundImageFix"/>
<feBlend mode="normal" in="SourceGraphic" in2="BackgroundImageFix" result="shape"/>
<feGaussianBlur stdDeviation="46.211" result="effect1_foregroundBlur_1_9"/>
</filter>
<linearGradient id="paint0_linear_1_9" x1="-6.6443" y1="36.1894" x2="12.9036" y2="118.527" gradientUnits="userSpaceOnUse">
<stop stop-color="#5CAEA8" stop-opacity="0.8"/>
<stop offset="0.382" stop-color="#5CAEA8" stop-opacity="0.16"/>
<stop offset="1" stop-color="#5CAEA8" stop-opacity="0"/>
</linearGradient>
<linearGradient id="paint1_linear_1_9" x1="25.9798" y1="23.7635" x2="45.5277" y2="106.101" gradientUnits="userSpaceOnUse">
<stop stop-color="#2E5753" stop-opacity="0.8"/>
<stop offset="0.382" stop-color="#2E5753" stop-opacity="0.32"/>
<stop offset="1" stop-color="#2E5753" stop-opacity="0"/>
</linearGradient>
<linearGradient id="paint2_linear_1_9" x1="201.862" y1="-19.3518" x2="194.219" y2="58.1992" gradientUnits="userSpaceOnUse">
<stop stop-color="#2E5753" stop-opacity="0.5"/>
<stop offset="1" stop-color="#2E5753" stop-opacity="0"/>
</linearGradient>
<clipPath id="clip0_1_9">
<rect width="345" height="121" fill="white"/>
</clipPath>
</defs>
</svg>
